<svg xmlns="http://www.w3.org/2000/svg" xmlns:xlink="http://www.w3.org/1999/xlink" version="1.1" id="Layer_9" x="0px" y="0px" viewBox="0 0 1512 982" style="enable-background:new 0 0 1512 982;" xml:space="preserve">
<style type="text/css">
	.st0{fill:#262262;}
	.st1{opacity:0.23;fill:none;stroke:#3EBBEC;stroke-miterlimit:10;}
	.st2{fill:none;}
</style>

<ellipse class="st1" cx="1050.3" cy="1125.2" rx="586.5" ry="280.7"/>
<ellipse class="st1" cx="1567.3" cy="1125.2" rx="610.1" ry="250.9"/>
<path class="st1" d="M1590.7,575.7c129.5,82.8,94.2,433.4-78.9,783.1s-418.4,566-547.9,483.1s-94.2-433.4,78.9-783.1  S1461.2,492.9,1590.7,575.7z"/>
<path class="st1" d="M1783.6,332.8c102.7,65.7,56.3,380.7-103.5,703.6s-372.7,531.5-475.3,465.8s-56.3-380.7,103.5-703.6  S1680.9,267.2,1783.6,332.8z"/>
<path class="st1" d="M878,332.3c119.7-78.8,347.5,114,508.7,430.6s194.9,637.1,75.2,715.9c-119.7,78.8-347.5-114-508.7-430.6  S758.3,411.1,878,332.3z"/>
<path class="st1" d="M1118.9,806c92.3-60.7,286.9,125.1,434.6,415.1s192.6,574.4,100.3,635.1s-286.9-125.1-434.6-415.1  S1026.6,866.7,1118.9,806z"/>
<rect x="-0.1" class="st2" width="1512" height="982"/>
</svg>
